<?xml version="1.0" encoding="iso-8859-1"?>
<!-- Generator: Adobe Illustrator 19.0.0, SVG Export Plug-In . SVG Version: 6.00 Build 0)  -->
<svg version="1.1" id="Layer_1" xmlns="http://www.w3.org/2000/svg" xmlns:xlink="http://www.w3.org/1999/xlink" x="0px" y="0px"
	 viewBox="0 0 512 512" style="enable-background:new 0 0 512 512;" xml:space="preserve">
<g>
	<g>
		<path d="M490.068,491.602h-33.152V163.658c0-22.511-18.314-40.824-40.824-40.824h-76.338v-82.01
			C339.753,18.314,321.439,0,298.93,0h-85.289c-22.511,0-40.824,18.314-40.824,40.824v209.153H95.909
			c-22.511,0-40.824,18.314-40.824,40.823v200.801H21.932c-5.632,0-10.199,4.567-10.199,10.199c0,5.632,4.567,10.199,10.199,10.199
			h468.135c5.632,0,10.199-4.567,10.199-10.199C500.267,496.169,495.7,491.602,490.068,491.602z M201.623,491.602H75.483v-200.8
			c0-11.263,9.163-20.425,20.426-20.425h85.289c11.263,0,20.425,9.162,20.425,20.425V491.602z M289.978,163.657v327.944h-67.956
			v-200.8c0-18.329-12.144-33.874-28.808-39.017V40.824c0-11.263,9.164-20.426,20.427-20.426h85.289
			c11.263,0,20.425,9.163,20.425,20.426v83.654C302.4,129.44,289.978,145.121,289.978,163.657z M436.516,491.602h-126.14V163.658
			c0-11.263,9.162-20.426,20.425-20.426h85.289c11.263,0,20.426,9.163,20.426,20.426V491.602z"/>
	</g>
</g>
<g>
	<g>
		<path d="M408.387,257.534c-5.632,0-10.199,4.567-10.199,10.199v193.838c0,5.632,4.567,10.199,10.199,10.199
			s10.199-4.567,10.199-10.199V267.733C418.587,262.1,414.02,257.534,408.387,257.534z"/>
	</g>
</g>
<g>
	<g>
		<path d="M408.387,211.208c-5.632,0-10.199,4.567-10.199,10.199v6.096c0,5.632,4.567,10.199,10.199,10.199
			s10.199-4.567,10.199-10.199v-6.096C418.587,215.775,414.02,211.208,408.387,211.208z"/>
	</g>
</g>
<g>
</g>
<g>
</g>
<g>
</g>
<g>
</g>
<g>
</g>
<g>
</g>
<g>
</g>
<g>
</g>
<g>
</g>
<g>
</g>
<g>
</g>
<g>
</g>
<g>
</g>
<g>
</g>
<g>
</g>
</svg>
