<svg id="Capa_1" enable-background="new 0 0 512 512" height="512" viewBox="0 0 512 512" width="512" xmlns="http://www.w3.org/2000/svg" xmlns:xlink="http://www.w3.org/1999/xlink"><linearGradient id="SVGID_1_" gradientUnits="userSpaceOnUse" x1="465.99" x2="465.99" y1="332" y2="182"><stop offset="0" stop-color="#ffedad"/><stop offset="1" stop-color="#ffffe5"/></linearGradient><linearGradient id="SVGID_2_" gradientUnits="userSpaceOnUse" x1="226" x2="226" y1="512" y2="122"><stop offset="0" stop-color="#fd5900"/><stop offset="1" stop-color="#ffde00"/></linearGradient><linearGradient id="SVGID_3_" gradientUnits="userSpaceOnUse" x1="227.003" x2="227.003" y1="302" y2="0"><stop offset="0" stop-color="#ffe59a"/><stop offset="1" stop-color="#ffffd5"/></linearGradient><g><g id="Piggy_bank_1_"><g><path d="m437 332c-8.291 0-15.454-6.709-15.454-15s6.255-15 14.546-15c25.722 0 45.908-20.186 45.908-45 0-25.093-21.299-44.634-45.835-44.971-7.983 0-15.718-6.167-16.157-14.15-.454-8.276 4.688-15.322 12.964-15.762l4.028-.117c41.353 0 75 33.647 75 75s-33.647 75-75 75z" fill="url(#SVGID_1_)"/></g><g><path d="m377 512h-60c-8.291 0-15-6.709-15-15v-16.465c-38.877 7.383-80.962 7.134-120-.762v17.227c0 8.291-6.709 15-15 15h-60c-8.291 0-15-6.709-15-15v-54.229c-20.054-14.252-35.288-31.274-45.454-50.771h-31.546c-8.291 0-15-6.709-15-15v-90c0-8.291 6.709-15 15-15h30.975c10.166-20.303 25.605-37.837 46.025-52.31v-82.69c0-8.291 6.709-15 15-15 39.961 0 76.23 23.057 93.765 58.506 76.875-9.697 155.317 9.346 202.822 49.673 31.67 26.88 48.413 62.094 48.413 101.821 0 45.85-20.698 84.507-60 112.31v52.69c0 8.291-6.709 15-15 15z" fill="url(#SVGID_2_)"/></g><g><g><path d="m257 150c41.353 0 75-33.647 75-75s-33.647-75-75-75-75 33.647-75 75 33.647 75 75 75zm65.156 102.269c-38.979-14.238-81.929-17.666-127.588-10.151-8.174 1.333-13.711 9.053-12.363 17.227s9.023 13.916 17.227 12.363c71.708-11.709 107.69 9.653 117.568 9.653 6.123 0 11.865-3.765 14.092-9.844 2.842-7.779-1.157-16.392-8.936-19.248zm-185.156 19.731c-8.284 0-15 6.716-15 15s6.716 15 15 15 15-6.716 15-15-6.716-15-15-15z" fill="url(#SVGID_3_)"/></g></g></g></g></svg>